<svg xmlns="http://www.w3.org/2000/svg" viewBox="0 0 64 64" width="64" height="64">
  <defs>
    <linearGradient id="dropGrad" x1="0%" y1="0%" x2="100%" y2="100%">
      <stop offset="0%" stop-color="#00E5FF"/>
      <stop offset="100%" stop-color="#7A5CFF"/>
    </linearGradient>
    <linearGradient id="innerGrad" x1="0%" y1="0%" x2="0%" y2="100%">
      <stop offset="0%" stop-color="#0A0A0F"/>
      <stop offset="100%" stop-color="#12121A"/>
    </linearGradient>
  </defs>
  <!-- Droplet shape -->
  <path d="M32 4 C32 4, 8 30, 8 42 C8 55.2 18.8 62 32 62 C45.2 62 56 55.2 56 42 C56 30 32 4 32 4Z" fill="url(#dropGrad)" opacity="0.9"/>
  <!-- Inner dark fill -->
  <path d="M32 8 C32 8, 12 31, 12 42 C12 53 20.9 58 32 58 C43.1 58 52 53 52 42 C52 31 32 8 32 8Z" fill="url(#innerGrad)"/>
  <!-- Letter P -->
  <text x="25" y="49" font-family="Arial, Helvetica, sans-serif" font-weight="800" font-size="30" fill="#00E5FF">P</text>
  <!-- Subtle highlight drop reflection -->
  <ellipse cx="24" cy="28" rx="5" ry="8" fill="white" opacity="0.06" transform="rotate(-20 24 28)"/>
</svg>
