<svg xmlns="http://www.w3.org/2000/svg" width="1200" height="630" viewBox="0 0 1200 630">
  <defs>
    <linearGradient id="bg" x1="0%" y1="0%" x2="100%" y2="100%">
      <stop offset="0%" stop-color="#0A0A0F"/>
      <stop offset="100%" stop-color="#12121A"/>
    </linearGradient>
    <linearGradient id="accent" x1="0%" y1="0%" x2="100%" y2="0%">
      <stop offset="0%" stop-color="#00E5FF"/>
      <stop offset="100%" stop-color="#7A5CFF"/>
    </linearGradient>
  </defs>
  <rect width="1200" height="630" fill="url(#bg)"/>
  <!-- Subtle grid -->
  <pattern id="grid" width="60" height="60" patternUnits="userSpaceOnUse">
    <path d="M 60 0 L 0 0 0 60" fill="none" stroke="rgba(255,255,255,0.03)" stroke-width="1"/>
  </pattern>
  <rect width="1200" height="630" fill="url(#grid)"/>
  <!-- Glow effects -->
  <circle cx="300" cy="315" r="250" fill="#00E5FF" opacity="0.04"/>
  <circle cx="900" cy="315" r="250" fill="#7A5CFF" opacity="0.04"/>
  <!-- Logo -->
  <g transform="translate(490, 120) scale(0.6)">
    <g fill="#00E5FF">
      <circle cx="100" cy="12" r="8"/><circle cx="119.6" cy="13.5" r="7.5"/><circle cx="138" cy="18.5" r="7.5"/>
      <circle cx="154.5" cy="27" r="7"/><circle cx="168.5" cy="38.5" r="7"/><circle cx="179" cy="52.5" r="7"/>
      <circle cx="186.5" cy="68.5" r="7"/><circle cx="190" cy="86" r="7.5"/><circle cx="189.5" cy="104" r="7.5"/>
      <circle cx="185" cy="121.5" r="7.5"/><circle cx="177" cy="137.5" r="7.5"/><circle cx="166" cy="151.5" r="7.5"/>
      <circle cx="152.5" cy="163" r="7.5"/><circle cx="137" cy="171.5" r="7.5"/><circle cx="120" cy="177" r="8"/>
      <circle cx="100" cy="179" r="8.5"/><circle cx="80" cy="177" r="8"/><circle cx="63" cy="171.5" r="7.5"/>
      <circle cx="47.5" cy="163" r="7.5"/><circle cx="34" cy="151.5" r="7.5"/><circle cx="23" cy="137.5" r="7.5"/>
      <circle cx="15" cy="121.5" r="7.5"/><circle cx="10.5" cy="104" r="7.5"/><circle cx="10" cy="86" r="7.5"/>
      <circle cx="13.5" cy="68.5" r="7"/><circle cx="21" cy="52.5" r="7"/><circle cx="31.5" cy="38.5" r="7"/>
      <circle cx="45.5" cy="27" r="7"/><circle cx="62" cy="18.5" r="7.5"/><circle cx="80.4" cy="13.5" r="7.5"/>
    </g>
    <circle cx="100" cy="100" r="52" fill="none" stroke="#00E5FF" stroke-width="12"/>
    <circle cx="100" cy="100" r="6" fill="#00E5FF"/>
  </g>
  <!-- Title -->
  <text x="600" y="380" text-anchor="middle" font-family="system-ui, -apple-system, sans-serif" font-weight="800" font-size="72" fill="white">Pepti<tspan fill="url(#accent)">drop</tspan></text>
  <!-- Subtitle -->
  <text x="600" y="430" text-anchor="middle" font-family="system-ui, -apple-system, sans-serif" font-weight="400" font-size="28" fill="#9CA3AF">#1 AI Peptide Research &amp; Protocol Platform</text>
  <!-- Stats bar -->
  <text x="600" y="500" text-anchor="middle" font-family="system-ui, -apple-system, sans-serif" font-weight="600" font-size="22" fill="#00E5FF">345+ Peptides  ·  AI Protocol Engine  ·  Synergy Mapping  ·  Risk Simulation</text>
  <!-- Bottom accent line -->
  <rect x="0" y="620" width="1200" height="10" fill="url(#accent)"/>
</svg>
